PathFileType  4	(X/Y/Z) C:\Users\antoi\Documents\MyRepositories\mobilecap\ResultsAnalysis
DataRate	CameraRate	NumFrames	NumMarkers	Units	OrigDataRate	OrigDataStartFrame	OrigNumFrames
100.0	100.0	4	51	mm	100.0	853	1137
Frame#	Time	r_knee			r_shank_antsup			r_ankle			r_calc			r_5meta			r_toe			L_knee			L_shank_antsup			L_ankle			L_calc			L_5meta			L_toe			r_sh2			r_sh3			r_sh4			L_sh2			L_sh3			r_thigh1			r_thigh2			r_thigh3			r_thigh4			r_thigh5			L_thigh1			L_thigh2			L_thigh3			L_thigh4			r.ASIS			r.PSIS			L.ASIS			L.PSIS			C7			R_Shoulder			L_Shoulder			R_Sternum			L_Sternum			R_humerus			R_elbow_med			R_elbow_lat			R_forearm			R_wrist_radius			R_wrist_ulna			L_humerus			L_elbow_med			L_elbow_lat			L_forearm			L_wrist_radius			L_wrist_ulna			R_HJC			L_HJC			R_HJC_reg			L_HJC_reg			
		X1	Y1	Z1	X2	Y2	Z2	X3	Y3	Z3	X4	Y4	Z4	X5	Y5	Z5	X6	Y6	Z6	X7	Y7	Z7	X8	Y8	Z8	X9	Y9	Z9	X10	Y10	Z10	X11	Y11	Z11	X12	Y12	Z12	X13	Y13	Z13	X14	Y14	Z14	X15	Y15	Z15	X16	Y16	Z16	X17	Y17	Z17	X18	Y18	Z18	X19	Y19	Z19	X20	Y20	Z20	X21	Y21	Z21	X22	Y22	Z22	X23	Y23	Z23	X24	Y24	Z24	X25	Y25	Z25	X26	Y26	Z26	X27	Y27	Z27	X28	Y28	Z28	X29	Y29	Z29	X30	Y30	Z30	X31	Y31	Z31	X32	Y32	Z32	X33	Y33	Z33	X34	Y34	Z34	X35	Y35	Z35	X36	Y36	Z36	X37	Y37	Z37	X38	Y38	Z38	X39	Y39	Z39	X40	Y40	Z40	X41	Y41	Z41	X42	Y42	Z42	X43	Y43	Z43	X44	Y44	Z44	X45	Y45	Z45	X46	Y46	Z46	X47	Y47	Z47	X48	Y48	Z48	X49	Y49	Z49	X50	Y50	Z50	X51	Y51	Z51	

853	8.52000000	-198.47274	442.87925	-370.71883	-153.84870	338.02886	-378.66596	-295.05192	93.94158	-389.67272	-342.42691	51.49597	-442.01559	-190.85811	44.01307	-343.02884	-149.96392	61.71131	-381.91205	-185.17998	441.44301	-813.53498	-135.81683	334.85506	-772.70397	-299.01019	91.84435	-794.14415	-348.84663	51.98810	-744.45457	-187.16079	36.71854	-817.77021	-146.51261	56.87364	-766.99301	-192.18434	233.16141	-388.00720	-213.76970	352.80428	-334.70762	-263.25260	253.17717	-353.50805	-185.79411	372.38231	-836.88623	-231.10513	258.42917	-845.36143	-470.71392	570.23540	-419.25000	-366.77747	563.25313	-403.76967	-351.78230	512.78356	-357.67840	-488.51628	469.47633	-372.35584	-374.41127	461.44974	-354.40169	-451.72880	552.98921	-792.72022	-320.80857	547.28217	-794.24312	-474.45463	446.97938	-825.45968	-332.39727	443.93610	-831.76484	-452.53889	579.56468	-477.11763	-626.54374	626.63198	-554.64133	-437.83149	569.53945	-717.88764	-625.40646	626.26038	-664.77450	-397.97987	1035.46910	-594.52210	-339.37335	1006.86361	-448.01523	-332.65427	1011.42363	-734.43710	-296.26627	945.66950	-570.53724	-292.62386	942.65950	-613.75896	-350.79061	901.92100	-367.32449	-472.18520	722.61398	-339.75079	-417.71238	746.84637	-282.47489	-315.55580	748.47594	-350.94044	-249.18478	764.53187	-425.81959	-234.71495	732.39114	-413.44023	-331.11963	889.25292	-829.92407	-423.03904	705.03631	-851.82990	-386.91924	731.02342	-917.96058	-292.33810	734.97485	-865.93345	-209.48802	748.61104	-771.26033	-195.93295	721.19522	-782.53028	-543.01734	510.87711	-502.53991	-529.50173	500.79276	-691.16533	-521.07761	508.82184	-511.08858	-519.43227	508.28419	-670.42100	
854	8.53000000	-198.82062	442.97966	-370.52777	-154.23117	338.22481	-378.49594	-295.06462	93.89034	-389.64324	-342.43318	51.48908	-442.01468	-190.85091	44.01991	-343.04700	-149.97667	61.75308	-381.90722	-185.55136	441.68851	-813.46060	-136.16938	335.21467	-772.74482	-299.07026	92.01799	-794.14789	-348.83305	52.11064	-744.50952	-187.12974	36.81846	-817.70379	-146.51157	56.97763	-766.94886	-192.25872	233.08307	-388.02203	-214.07796	352.75477	-334.91753	-263.47651	253.34058	-353.39867	-186.17212	372.62857	-836.77855	-231.27728	258.67968	-845.39392	-471.07634	569.88501	-419.25513	-367.09387	563.18625	-403.63093	-352.12159	512.73928	-357.50259	-488.86874	469.27761	-372.12361	-374.68986	461.25148	-354.34744	-452.30819	552.83986	-792.23673	-321.38134	547.52915	-794.09298	-474.83238	446.93574	-825.28095	-332.65973	444.06382	-831.61017	-453.33943	579.54132	-476.84065	-627.76236	625.96328	-554.24166	-438.63168	569.87996	-718.18627	-626.58056	625.53314	-664.62983	-401.03078	1035.95038	-593.93762	-343.68064	1007.50571	-447.89993	-336.15912	1012.22429	-734.32862	-299.12647	946.38519	-570.24166	-295.33694	943.30760	-613.72209	-355.08237	902.09540	-366.94966	-477.32943	723.19071	-340.02095	-422.87451	747.24527	-282.57129	-320.45440	748.42874	-350.69254	-253.83238	764.25909	-425.37250	-239.53831	732.05661	-412.84151	-335.11312	890.14385	-830.31886	-428.38656	705.49768	-852.26715	-391.60788	732.15718	-918.32578	-296.98747	735.75806	-866.33477	-213.73016	749.01490	-771.90306	-200.50203	721.67245	-783.28006	-543.49075	510.45832	-502.50351	-530.06331	500.65222	-691.15006	-521.73059	508.58291	-510.90579	-520.02036	507.96050	-670.60605	
855	8.54000000	-199.28181	443.17689	-370.25171	-154.63384	338.44832	-378.38379	-295.09087	93.88146	-389.63510	-342.42342	51.50258	-442.02299	-190.86380	44.04462	-343.05337	-149.99286	61.82088	-381.86355	-185.99883	441.92655	-813.46614	-136.51778	335.54135	-772.75189	-299.10863	92.10046	-794.10368	-348.83739	52.15951	-744.52483	-187.09898	36.92312	-817.66740	-146.49990	57.08467	-766.92160	-192.56080	233.20053	-387.85046	-214.56018	352.79929	-334.87449	-263.68632	253.45937	-353.24096	-186.52783	372.83563	-836.80432	-231.41252	258.90030	-845.46300	-471.61746	569.60445	-419.34637	-367.67217	563.24277	-403.40029	-352.53335	512.80098	-357.24638	-489.27915	469.06439	-371.96294	-375.07647	461.20408	-354.20687	-452.85409	552.84769	-791.93883	-321.95343	547.74667	-793.98020	-475.19046	446.95143	-825.29817	-333.01673	444.20137	-831.49140	-454.19239	579.56684	-476.44099	-628.96950	625.44522	-554.09949	-439.83404	569.87967	-717.66280	-627.69190	624.92804	-664.44167	-403.85906	1036.30926	-593.39324	-348.92376	1007.63861	-449.98619	-339.20207	1012.93977	-734.19760	-301.68175	947.04642	-570.02085	-297.84254	943.87760	-613.59689	-359.01273	902.28405	-366.40957	-481.71607	723.53677	-340.53287	-427.76228	747.52440	-282.79282	-325.05066	748.17407	-350.50045	-258.06702	763.72865	-424.89009	-243.96915	731.45020	-412.28765	-338.77138	890.94498	-830.64136	-432.17684	707.30483	-851.79709	-396.13463	733.21785	-918.50895	-301.40821	736.40005	-866.67548	-217.80123	749.22008	-772.43969	-204.81863	721.87188	-783.81282	-544.32065	510.23869	-502.12400	-530.84237	500.33265	-690.76143	-522.60969	508.46818	-510.50187	-520.76117	507.72036	-670.10570	
856	8.55000000	-199.84524	443.41892	-369.98937	-155.06777	338.71134	-378.26286	-295.18001	93.89990	-389.63137	-342.42764	51.50847	-442.02836	-190.87180	44.05152	-343.06700	-150.01111	61.90435	-381.83258	-186.45001	442.15088	-813.59995	-136.82314	335.70300	-772.65440	-299.14179	92.16476	-794.16000	-348.85914	52.15631	-744.50687	-187.08491	36.98527	-817.63949	-146.50051	57.17712	-766.90274	-193.01576	233.55926	-387.62494	-215.17362	353.03718	-334.51110	-264.15684	253.45404	-353.17013	-186.90626	372.99893	-836.87281	-231.60220	259.04425	-845.51055	-472.27767	569.44321	-419.35284	-368.54564	563.36854	-403.27321	-353.10795	513.01087	-356.85662	-489.79217	468.95548	-371.75904	-375.58180	461.38132	-353.89196	-453.41902	552.81355	-791.73384	-322.46733	547.80045	-793.77473	-475.53142	446.98886	-825.43773	-333.46387	444.35228	-831.59859	-455.09485	579.69265	-476.13489	-630.01948	625.01628	-554.02814	-441.37633	569.66481	-716.77164	-628.71922	624.43504	-664.22467	-406.43080	1036.61840	-593.17608	-353.06908	1007.51023	-451.66033	-341.63378	1013.63791	-734.29847	-303.93054	947.55931	-569.84060	-300.01472	944.33322	-613.39821	-362.55845	902.44254	-365.90834	-485.68149	723.97991	-341.18962	-432.31064	747.74342	-283.03523	-329.30308	747.73052	-350.37165	-261.90533	762.98953	-424.43406	-248.06479	730.58867	-411.81379	-342.06721	891.51542	-830.68677	-435.85839	708.99838	-851.09748	-400.52682	734.08637	-918.29706	-305.60837	736.77274	-866.81222	-221.70115	749.18328	-772.67751	-208.87930	721.66291	-784.03915	-545.28894	510.17582	-501.57430	-531.81210	499.91802	-690.19288	-523.54660	508.41516	-510.07733	-521.66783	507.57567	-669.28015	
